<svg width="57" height="79" fill="none" xmlns="http://www.w3.org/2000/svg"><g filter="url(#filter0_d)"><path d="M35.5919 38.0398l-14.1824-.0073-2.769 20.0461C18.5003 59.0942 19.2882 60 20.3121 60h16.376c1.0238 0 1.8118-.9058 1.6715-1.9214l-2.7677-20.0388z" fill="#FF7236"/><path d="M20.9702 41.2122c2.2469 1.2027 4.8089 1.8895 7.5299 1.8895 2.7209 0 5.283-.6868 7.5299-1.8895l-.4382-3.1726-14.1824-.0074-.4392 3.18z" fill="#FFAA50"/><path d="M34.4062 16.9098l5.5484-5.556c.7547-.7558 2.0453-.2205 2.0453.8484v14.8465c0-4.8156-3.8079-7.7443-7.5937-10.1389z" fill="#FF7236"/><path d="M42 27.0488c0 7.4661-6.0442 13.5185-13.4999 13.5185-7.4558 0-13.4999-6.0525-13.4999-13.5185 0-7.466 6.044-12.6736 13.4999-12.6736C35.9559 14.3752 42 19.5827 42 27.0488z" fill="#FFAA50"/><path d="M22.5938 27.0487c0-6.5067 3.7309-11.295 8.6993-12.4189a15.4417 15.4417 0 00-2.7931-.2547c-2.4843 0-4.804.5891-6.8035 1.6363l-4.6512-4.6576C16.2906 10.598 15 11.1333 15 12.2022v14.8465c0-.3047 0-.3031 0 0 0 7.4661 6.0442 13.5184 13.4999 13.5184.9581 0 1.8916-.1032 2.7931-.2932-4.9683-1.2888-8.6992-6.7186-8.6992-13.2252z" fill="#FF7236"/><path d="M25.5468 35.4979c1.631 0 2.9531-1.1349 2.9531-2.5347 0-1.3999-1.3221-2.5347-2.9531-2.5347-1.6309 0-2.953 1.1348-2.953 2.5347 0 1.3998 1.3221 2.5347 2.953 2.5347zM31.4533 35.4976c1.631 0 2.9531-1.1348 2.9531-2.5347s-1.3221-2.5347-2.9531-2.5347c-1.6309 0-2.953 1.1348-2.953 2.5347s1.3221 2.5347 2.953 2.5347z" fill="#FFFDFB"/><path d="M28.5002 32.9636c.932 0 1.6875-.7565 1.6875-1.6898s-.7555-1.6898-1.6875-1.6898-1.6875.7565-1.6875 1.6898.7555 1.6898 1.6875 1.6898z" fill="#FF913C"/><path d="M34.4031 50.6358c-.0379-.4646-.4309-.8099-.9105-.7719-.4648.0388-.8091.4473-.7704.9122l.1598 1.9204c.2136 2.567-1.8094 4.7687-4.3819 4.7687-2.5724 0-4.5955-2.2017-4.3819-4.7687l.1598-1.9204c.0387-.4649-.3057-.8734-.7704-.9122-.4778-.0375-.8718.3073-.9105.7719l-.7791 9.364h13.3644l-.7793-9.364z" fill="#FFAA50"/><path d="M23.4377 27.8935c-.4664 0-.8437-.3783-.8437-.8449v-.8448c0-.4666.3774-.8449.8437-.8449s.8437.3783.8437.8449v.8448c0 .4666-.3774.8449-.8437.8449zM33.5625 27.8935c-.4664 0-.8437-.3783-.8437-.8449v-.8448c0-.4666.3774-.8449.8437-.8449.4664 0 .8437.3783.8437.8449v.8448c.0001.4666-.3773.8449-.8437.8449z" fill="#1A212F"/></g><defs><filter id="filter0_d" x="0" y="0" width="57" height="79" filterUnits="userSpaceOnUse" color-interpolation-filters="sRGB"><feFlood flood-opacity="0" result="BackgroundImageFix"/><feColorMatrix in="SourceAlpha" values="0 0 0 0 0 0 0 0 0 0 0 0 0 0 0 0 0 0 127 0"/><feOffset dy="4"/><feGaussianBlur stdDeviation="7.5"/><feColorMatrix values="0 0 0 0 0.575 0 0 0 0 0.575 0 0 0 0 0.575 0 0 0 0.25 0"/><feBlend in2="BackgroundImageFix" result="effect1_dropShadow"/><feBlend in="SourceGraphic" in2="effect1_dropShadow" result="shape"/></filter></defs></svg>