<svg width="46" height="38" fill="none" xmlns="http://www.w3.org/2000/svg"><path d="M5.7678 35.4295c-.0588-.7104-.4826-1.4089-1.648-1.4681.7181-.0947 1.7069-1.7523 1.2831-2.9836-.3531-.9946-1.4125-.6038-2.0364-.4144-.1177.9472.153 2.6876-.8946 2.9125-.047-.4972.0471-1.326-.0824-2.1903C2.1423 29.853.4002 30.516 0 30.6936c.153 1.5865.1295 2.0128.1295 3.919.0118.6511-.0589 1.6812 0 2.2377.1648 1.4799 1.9187 1.0892 2.4013.5801 0-.6275-.0118-1.9062-.0471-2.6166.7769-.0592.9181.1658.9417 1.8233.0118 1.6576 1.9657 1.3498 2.5425.7815-.2-.6157-.1412-1.3971-.2-1.9891zM6.789 34.21c0 3.4335 1.7657 3.7177 3.0017 3.6821 1.1418 0 3.0134-.3196 3.0251-3.6821-.0117-2.877-1.283-3.8952-2.9898-3.8952-1.801 0-3.037 1.1129-3.037 3.8952zm3.037-1.9654c.1295 0 .6238-.1894.6238 1.8825 0 1.3498-.2118 2.1193-.6356 2.1193-.3531 0-.6356-.3196-.6003-2.1193 0-1.6338.412-1.8825.612-1.8825zM15.2378 32.4933c0 .6748-.0118 1.4207.0236 3.7176.0117.9235.047 1.6812 1.1064 1.6576.9417 0 1.1771-.3789 1.2831-.4973.0353-1.0301-.0353-3.2796-.0589-4.8424.259 0 .5062 0 .7298-.0119.7534-.0236 1.0123-.4736 1.0006-1.1011-.0118-.7103-.5886-1.0892-1.389-1.0892h-2.2365c-1.7774.0118-1.8952.0118-2.0364 0-.3296 1.3971-.1295 2.143 1.2242 2.1667h.3531zM24.1709 30.374c-.8239-.0829-2.8132-.0474-4.1905.0118.1531 1.5747.1648 3.5993.1413 5.0319.0235 1.3734-.0942 2.3324 1.3419 2.4271.9417.071 1.4714.071 2.3189 0 1.1536-.0947 1.6244-.7222 1.0712-2.0956-.9535.142-1.8363.1776-2.3896.071 0-.1658-.0235-.6867 0-.8169.5297 0 1.1065-.0237 1.6127-.0237 1.0476 0 .9417-1.6931-.0118-1.6931-.6827-.0355-.9888.0355-1.6244-.0237v-.9353c.718-.0592 1.0358-.0237 1.6362 0 1.13.0355 1.13-1.7168.0941-1.9535zM27.8479 27.7929c-.7769.5091-.7298 1.2787-.1765 1.7404.6238.4499 1.848.3079 2.672-.0592.7533-.3433 1.0476-1.1247.2472-1.7049-1.1889.6275-1.9776.3079-2.7427.0237zm4.1905 3.5874c0-.7104-.4473-1.0537-1.1535-1.0537-.824 0-1.2478.2131-1.495.9708-.2942.9235-.7298 2.3443-.977 3.327 0-.4262.0707-2.9362.0707-3.2441 0-.7814-.412-1.0537-1.1065-1.0537-.4826 0-1.3419.3078-1.3419.3078.0706.5328.1295.8406.1412 1.5392.0236.734 0 1.9062.0707 4.2267.0353 1.1367.4002 1.5155 1.3183 1.48 1.648-.0592 1.7539-3.1138 2.2012-4.2268 0 .5091-.0235 2.2733-.0235 2.8652 0 .8051.0706 1.3616 1.0005 1.3616.8004 0 1.2595-.2723 1.4008-.5209-.0942-.3552-.1295-2.5101-.1295-4.2031 0-.7459.0117-1.3971.0235-1.776zM38.8578 35.4295c-.0588-.7104-.4826-1.4089-1.6479-1.4681.718-.0947 1.7068-1.7523 1.283-2.9836-.3531-.9946-1.4125-.6038-2.0364-.4144-.1177.9472.153 2.6876-.8946 2.9125-.0471-.4972.0471-1.326-.0824-2.1903-.2472-1.4326-1.9893-.7696-2.3895-.592.153 1.5865.1295 2.0128.1295 3.919.0118.6511-.0589 1.6812 0 2.2377.1648 1.4799 1.9187 1.0892 2.4013.5801 0-.6275-.0118-1.9062-.0471-2.6166.7769-.0592.9181.1658.9417 1.8233.0117 1.6576 1.9657 1.3498 2.5425.7815-.2001-.6157-.1412-1.3971-.2001-1.9891zM46 37.3712c-.1648-.4618-.153-.6867-.1883-1.3497-.0942-1.7286-.1177-3.398-.6828-4.5465-.9534-1.693-3.4136-1.2313-4.6024-.3788-.106 2.0482-.4591 2.8889-.6828 5.1739-.1648 1.6694 1.2242 2.1311 2.519 1.3142 0-.2013 0-.8998.0589-1.0656.153 0 .7298.0119.9535.0119 0 0-.0589.6867.2707 1.0537.5885.6749 1.9422.4736 2.3542-.2131zm-3.496-2.3324c.0824-.6394.0824-1.9654.1177-2.2496.0589-.0473.4591-.0236.5062.0356.1412.5564.1412 1.5746.1765 2.214h-.8004z" fill="#1A212F"/><path d="M28.4761 5.112L33.2775.306c.6531-.6537 1.77-.1907 1.77.7339V13.882c-.0001-4.1654-3.2953-6.6987-6.5714-8.77z" fill="#FF7236"/><path d="M35.0475 13.8822c0 6.4581-5.2304 11.6933-11.6824 11.6933-6.452 0-11.6825-5.2353-11.6825-11.6933 0-6.458 5.2304-10.9626 11.6825-10.9626 6.4521 0 11.6824 4.5045 11.6824 10.9626z" fill="#FFAA50"/><path d="M18.2539 13.882c0-5.6282 3.2286-9.77 7.5282-10.7423a13.3724 13.3724 0 00-2.4171-.2202c-2.1498 0-4.1573.5095-5.8875 1.4153L13.4524.306c-.6531-.6537-1.7699-.1907-1.7699.7339V13.882c0-.2636 0-.2622 0 0 0 6.4581 5.2304 11.6934 11.6824 11.6934a11.715 11.715 0 002.4171-.2537c-4.2995-1.1148-7.5281-5.8116-7.5281-11.4397z" fill="#FF7236"/><path d="M20.8094 21.1903c1.4114 0 2.5555-.9816 2.5555-2.1924 0-1.2109-1.1441-2.1925-2.5555-2.1925s-2.5555.9816-2.5555 2.1925c0 1.2108 1.1441 2.1924 2.5555 2.1924zM25.9207 21.1904c1.4114 0 2.5555-.9816 2.5555-2.1925 0-1.2109-1.1441-2.1925-2.5555-2.1925-1.4113 0-2.5555.9816-2.5555 2.1925 0 1.2109 1.1442 2.1925 2.5555 2.1925z" fill="#FFFDFB"/><path d="M23.3652 18.9983c.8065 0 1.4603-.6544 1.4603-1.4616 0-.8073-.6538-1.4617-1.4603-1.4617-.8066 0-1.4604.6544-1.4604 1.4617 0 .8072.6538 1.4616 1.4604 1.4616z" fill="#FF913C"/><path d="M18.9842 14.6128a.7302.7302 0 01-.7301-.7308v-.7308a.7303.7303 0 01.7301-.7308.7303.7303 0 01.7301.7308v.7308a.7303.7303 0 01-.7301.7308zM27.7459 14.6128a.7302.7302 0 01-.7301-.7308v-.7308a.7303.7303 0 01.7301-.7308.7303.7303 0 01.7302.7308v.7308a.7303.7303 0 01-.7302.7308z" fill="#1A212F"/></svg>