<svg width="24" height="24" fill="none" xmlns="http://www.w3.org/2000/svg"><path d="M12 24c6.6274 0 12-5.3726 12-12S18.6274 0 12 0 0 5.3726 0 12s5.3726 12 12 12z" fill="#1A212F"/><path fill-rule="evenodd" clip-rule="evenodd" d="M11.5468 17.263h.9418s.2845-.0313.4298-.1878c.1337-.1438.1294-.4137.1294-.4137s-.0184-1.2638.5681-1.4499c.5782-.1834 1.3207 1.2214 2.1077 1.7615.5951.4088 1.0473.3192 1.0473.3192l2.1043-.0293s1.1008-.0678.5788-.9333c-.0428-.0708-.304-.6403-1.5645-1.8104-1.3194-1.2246-1.1428-1.0265.4466-3.1449.968-1.2901 1.3549-2.0777 1.2341-2.415-.1153-.3213-.8272-.2364-.8272-.2364l-2.3693.0147s-.1756-.024-.3059.054c-.1273.0763-.2092.2543-.2092.2543s-.375.9983-.8751 1.8473c-1.055 1.7915-1.4769 1.8861-1.6493 1.7749-.4011-.2593-.301-1.0416-.301-1.5973 0-1.7361.2634-2.46-.5127-2.6474-.2575-.0622-.4471-.1033-1.1057-.11-.8454-.0087-1.561.0026-1.966.2011-.2696.132-.4775.4261-.3509.443.1566.021.5113.0957.6993.3517.2428.3303.2342 1.0721.2342 1.0721s.1395 2.0438-.3258 2.2977c-.3193.1741-.7574-.1814-1.698-1.8067-.482-.8326-.8458-1.7528-.8458-1.7528s-.0702-.172-.1953-.264c-.1519-.1114-.364-.147-.364-.147l-2.2515.0148s-.338.0094-.462.1564c-.1104.1307-.0088.401-.0088.401s1.7626 4.1239 3.7584 6.202c1.83 1.9053 3.9082 1.7802 3.9082 1.7802z" fill="#FFFDFB"/></svg>