<svg width="24" height="24" fill="none" xmlns="http://www.w3.org/2000/svg"><circle cx="12" cy="12" r="12" fill="#FFFDFB"/><path d="M14.2969 12c0 1.2686-1.0283 2.2969-2.2969 2.2969S9.7031 13.2686 9.7031 12 10.7314 9.7031 12 9.7031 14.2969 10.7314 14.2969 12z" fill="#1A212F"/><path d="M17.3716 7.9362a2.1347 2.1347 0 00-.5155-.7923 2.1326 2.1326 0 00-.7923-.5154c-.2428-.0943-.6075-.2066-1.2793-.2371-.7268-.0332-.9447-.0403-2.7845-.0403-1.84 0-2.058.007-2.7845.04-.6718.0308-1.0367.143-1.2793.2374a2.132 2.132 0 00-.7923.5154 2.1363 2.1363 0 00-.5157.7923c-.0943.2428-.2065.6078-.237 1.2796-.0332.7265-.0404.9444-.0404 2.7844 0 1.8399.0072 2.0578.0403 2.7845.0306.6718.1428 1.0366.2371 1.2794.1106.2994.2866.57.5155.7923.2223.2289.4929.405.7923.5154.2428.0945.6077.2068 1.2795.2373.7266.0332.9443.0401 2.7843.0401 1.8402 0 2.0581-.0069 2.7845-.0401.6718-.0305 1.0367-.1428 1.2795-.2373a2.2818 2.2818 0 001.3078-1.3077c.0943-.2428.2065-.6076.2373-1.2794.0331-.7267.0401-.9446.0401-2.7845 0-1.84-.007-2.0579-.0401-2.7844-.0306-.6718-.1428-1.0368-.2373-1.2796zM12 15.5384c-1.9543 0-3.5385-1.5841-3.5385-3.5383 0-1.9543 1.5842-3.5384 3.5385-3.5384 1.9541 0 3.5383 1.5841 3.5383 3.5384 0 1.9542-1.5842 3.5383-3.5383 3.5383zm3.6782-6.3897a.827.827 0 11.0001-1.6539.827.827 0 01-.0001 1.654z" fill="#1A212F"/><path d="M12 0C5.3736 0 0 5.3736 0 12s5.3736 12 12 12 12-5.3736 12-12S18.6264 0 12 0zm6.8491 14.8409c-.0334.7335-.15 1.2343-.3203 1.6726a3.5236 3.5236 0 01-2.0153 2.0153c-.4381.1703-.9391.2868-1.6724.3203-.7348.0335-.9696.0415-2.8409.0415-1.8715 0-2.1061-.008-2.841-.0415-.7334-.0335-1.2344-.15-1.6726-.3203a3.3748 3.3748 0 01-1.2206-.7949 3.3766 3.3766 0 01-.7946-1.2204c-.1703-.4381-.287-.9391-.3203-1.6724-.0338-.735-.0417-.9698-.0417-2.8411s.0079-2.106.0415-2.8409c.0334-.7335.1498-1.2343.3201-1.6727a3.3757 3.3757 0 01.795-1.2203 3.3753 3.3753 0 011.2204-.795c.4384-.1702.9392-.2866 1.6727-.3202.7348-.0335.9696-.0415 2.8409-.0415s2.1061.008 2.8409.0417c.7335.0334 1.2343.1498 1.6726.32.4598.173.8764.4443 1.2206.795.3505.3442.6219.7606.7947 1.2203.1705.4384.2869.9392.3204 1.6727.0336.7348.0414.9696.0414 2.8409s-.0078 2.1061-.0415 2.8409z" fill="#1A212F"/></svg>