<svg xmlns="http://www.w3.org/2000/svg">
  <!-- htmlacademy -->
  <symbol viewBox="0 0 60 60" id="icon-htmlacademy">
    <path d="M30.2 5H30L10.3 7.1v36.2L30 55l19.7-11.7V7.1L30.2 5zm17 36.8L30 52 12.8 41.8V27l17.1 10.2V39l-11.7-7v1.8L30 40.9v1.9l-11.8-7v1.8l11.8 7 11.9-7.1v-7.6l5.3-3.2v15.1zm-.1-17l-4.7 2.8-2.2 1.3-10.3-6.1v1.8l8.8 5.3h-.1l-.2.1-1.3.7-7.3-4.3v1.8l5.8 3.4-1.4.9-4.3-2.6v1.8l2.9 1.7-2.9 1.7-17-10.1 17-10.2 17.2 10zm.1-1.8L29.9 12.8 12.8 23V9.4L30 7.6l17.2 1.8V23z"/>
  </symbol>

  <!-- vkontakte -->
  <symbol viewBox="0 0 24 24" id="icon-vk">
    <path d="M12 24c6.6274 0 12-5.3726 12-12S18.6274 0 12 0 0 5.3726 0 12s5.3726 12 12 12z" fill="#1A212F"/>
    <path fill-rule="evenodd" clip-rule="evenodd" d="M11.5468 17.263h.9418s.2845-.0313.4298-.1878c.1337-.1438.1294-.4137.1294-.4137s-.0184-1.2638.5681-1.4499c.5782-.1834 1.3207 1.2214 2.1077 1.7615.5951.4088 1.0473.3192 1.0473.3192l2.1043-.0293s1.1008-.0678.5788-.9333c-.0428-.0708-.304-.6403-1.5645-1.8104-1.3194-1.2246-1.1428-1.0265.4466-3.1449.968-1.2901 1.3549-2.0777 1.2341-2.415-.1153-.3213-.8272-.2364-.8272-.2364l-2.3693.0147s-.1756-.024-.3059.054c-.1273.0763-.2092.2543-.2092.2543s-.375.9983-.8751 1.8473c-1.055 1.7915-1.4769 1.8861-1.6493 1.7749-.4011-.2593-.301-1.0416-.301-1.5973 0-1.7361.2634-2.46-.5127-2.6474-.2575-.0622-.4471-.1033-1.1057-.11-.8454-.0087-1.561.0026-1.966.2011-.2696.132-.4775.4261-.3509.443.1566.021.5113.0957.6993.3517.2428.3303.2342 1.0721.2342 1.0721s.1395 2.0438-.3258 2.2977c-.3193.1741-.7574-.1814-1.698-1.8067-.482-.8326-.8458-1.7528-.8458-1.7528s-.0702-.172-.1953-.264c-.1519-.1114-.364-.147-.364-.147l-2.2515.0148s-.338.0094-.462.1564c-.1104.1307-.0088.401-.0088.401s1.7626 4.1239 3.7584 6.202c1.83 1.9053 3.9082 1.7802 3.9082 1.7802z" fill="#FFFDFB"/>
  </symbol>

  <!-- instagramm -->
  <symbol viewBox="0 0 24 24" id="icon-ins">
    <circle cx="12" cy="12" r="12" fill="#FFFDFB"/>
    <path d="M14.2969 12c0 1.2686-1.0283 2.2969-2.2969 2.2969S9.7031 13.2686 9.7031 12 10.7314 9.7031 12 9.7031 14.2969 10.7314 14.2969 12z" fill="#1A212F"/>
    <path d="M17.3716 7.9362a2.1347 2.1347 0 00-.5155-.7923 2.1326 2.1326 0 00-.7923-.5154c-.2428-.0943-.6075-.2066-1.2793-.2371-.7268-.0332-.9447-.0403-2.7845-.0403-1.84 0-2.058.007-2.7845.04-.6718.0308-1.0367.143-1.2793.2374a2.132 2.132 0 00-.7923.5154 2.1363 2.1363 0 00-.5157.7923c-.0943.2428-.2065.6078-.237 1.2796-.0332.7265-.0404.9444-.0404 2.7844 0 1.8399.0072 2.0578.0403 2.7845.0306.6718.1428 1.0366.2371 1.2794.1106.2994.2866.57.5155.7923.2223.2289.4929.405.7923.5154.2428.0945.6077.2068 1.2795.2373.7266.0332.9443.0401 2.7843.0401 1.8402 0 2.0581-.0069 2.7845-.0401.6718-.0305 1.0367-.1428 1.2795-.2373a2.2818 2.2818 0 001.3078-1.3077c.0943-.2428.2065-.6076.2373-1.2794.0331-.7267.0401-.9446.0401-2.7845 0-1.84-.007-2.0579-.0401-2.7844-.0306-.6718-.1428-1.0368-.2373-1.2796zM12 15.5384c-1.9543 0-3.5385-1.5841-3.5385-3.5383 0-1.9543 1.5842-3.5384 3.5385-3.5384 1.9541 0 3.5383 1.5841 3.5383 3.5384 0 1.9542-1.5842 3.5383-3.5383 3.5383zm3.6782-6.3897a.827.827 0 11.0001-1.6539.827.827 0 01-.0001 1.654z" fill="#1A212F"/>
    <path d="M12 0C5.3736 0 0 5.3736 0 12s5.3736 12 12 12 12-5.3736 12-12S18.6264 0 12 0zm6.8491 14.8409c-.0334.7335-.15 1.2343-.3203 1.6726a3.5236 3.5236 0 01-2.0153 2.0153c-.4381.1703-.9391.2868-1.6724.3203-.7348.0335-.9696.0415-2.8409.0415-1.8715 0-2.1061-.008-2.841-.0415-.7334-.0335-1.2344-.15-1.6726-.3203a3.3748 3.3748 0 01-1.2206-.7949 3.3766 3.3766 0 01-.7946-1.2204c-.1703-.4381-.287-.9391-.3203-1.6724-.0338-.735-.0417-.9698-.0417-2.8411s.0079-2.106.0415-2.8409c.0334-.7335.1498-1.2343.3201-1.6727a3.3757 3.3757 0 01.795-1.2203 3.3753 3.3753 0 011.2204-.795c.4384-.1702.9392-.2866 1.6727-.3202.7348-.0335.9696-.0415 2.8409-.0415s2.1061.008 2.8409.0417c.7335.0334 1.2343.1498 1.6726.32.4598.173.8764.4443 1.2206.795.3505.3442.6219.7606.7947 1.2203.1705.4384.2869.9392.3204 1.6727.0336.7348.0414.9696.0414 2.8409s-.0078 2.1061-.0415 2.8409z" fill="#1A212F"/>
  </symbol>

  <!-- facebook -->
  <symbol viewBox="0 0 24 24" id="icon-fb">
    <circle cx="12" cy="12" r="12" fill="#FFFDFB"/>
    <path d="M24 12c0-6.6264-5.3736-12-12-12S0 5.3736 0 12s5.3736 12 12 12c.0705 0 .1406-.0015.2109-.0027v-9.3415h-2.578v-3.0046h2.578v-2.211c0-2.5642 1.5654-3.9599 3.8528-3.9599 1.0953 0 2.0368.0817 2.3113.1181v2.68h-1.5773c-1.2444 0-1.4853.5914-1.4853 1.4592v1.9136h2.9754L17.9 14.6558h-2.5876v8.8806C20.3282 22.0984 24 17.4774 24 12z" fill="#1A212F"/>
  </symbol>

  <!-- icon-mail -->
  <symbol viewBox="0 0 17 13" id="icon-mail">
    <path d="M15.6 11.6H1.4V5.8H0V13h17V5.8h-1.4v5.8zM0 0v2.3l8.5 7.1L17 2.3V0H0zm15.6 1.6L8.5 7.5 1.4 1.6v-.2h14.2v.2z"/>
  </symbol>

  <!-- icon-phone -->
  <symbol viewBox="0 0 20 20" id="icon-phone">
    <path d="M17.9 9.4H9.4v1.2h8.5l-2.1 2.1.9.9 3.1-3.1c.2-.2.2-.6 0-.9l-3.1-3.1-.9.9 2.1 2zM8.1 19.4v-6.2c0-.3-.3-.6-.6-.6H3.1c0 .7.6 1.2 1.2 1.2h2.5v5H3.1c-1 .1-1.8-.7-1.9-1.7v-14c0-1 .8-1.8 1.7-1.8H6.8v5H4.4c-.7 0-1.2.6-1.2 1.2h4.4c.3 0 .6-.3.6-.6V.6C8.1.3 7.8 0 7.5 0H3.1C1.5-.1.1 1.2 0 2.9V16.8c-.1 1.7 1.2 3.1 2.9 3.1H7.5c.3.1.6-.2.6-.5z"/>
  </symbol>
</svg>
